<?xml version="1.0" encoding="utf-8"?>
<!-- Generator: Adobe Illustrator 17.0.0, SVG Export Plug-In . SVG Version: 6.00 Build 0)  -->
<!DOCTYPE svg PUBLIC "-//W3C//DTD SVG 1.1//EN" "http://www.w3.org/Graphics/SVG/1.1/DTD/svg11.dtd">
<svg version="1.1" id="Capa_1" xmlns="http://www.w3.org/2000/svg" xmlns:xlink="http://www.w3.org/1999/xlink" x="0px" y="0px"
	 width="126.305px" height="91.458px" viewBox="0 0 126.305 91.458" enable-background="new 0 0 126.305 91.458"
	 xml:space="preserve">
<g>
	<path fill="#FFBF00" d="M102.095,50.159l12.303-3.021l-14.253,0.823l13.61-7.323c0,0-9.97,3.249-15.394,4.804l11.403-10.7
		c0,0-8.208,5.42-13.195,8.517c2.492-4.522,7.021-12.543,6.947-12.438c0.014-0.033-6.167,6.363-9.54,9.877
		c1.265-5.095,3.159-12.489,3.125-12.401c0-0.014-3.207,7.05-5.362,11.852l-0.476-13.76l-2.735,14.377l-4.441-13.141l1.675,12.567
		l-9.228-10.629l6.553,12.172l-12.158-6.802c3.844,3.68,9.811,8.808,14.595,10.687C91.047,47.792,94.992,49.962,102.095,50.159"/>
	<path fill="#33B3FF" d="M126.305,28.306l-6.807,9.944c-13.279-7.982-29.505-15.211-44.148-9.707
		c-4.744,1.921-5.333,2.174-9.659,5.182c-0.498-0.327-2.954-0.29-3.279-0.524c10.346-10.177,22.413-18.452,40.426-15.182
		C112.113,19.661,120.197,23.731,126.305,28.306"/>
	<path fill="#33B3FF" d="M78.612,43.24c0,0,18.288,10.49,33.294,7.549c-5.225,5.418-9.436,7.92-25.685,7.881
		c-34.442-0.043-46.837-31.3-76.122-31.231C5.597,27.824,1.541,30.438,0,34.982c2.053-13.689,21.974-18.363,35.479-15.34
		C54.808,25.052,60.189,35.625,78.612,43.24"/>
	<path fill="#33B3FF" d="M6.609,40.193c5.196,9.686,15.188,11.166,25.789,10.393c8.208-0.85,11.621-3.718,13.807-5.1
		c0.982-0.014,2.465,0.538,3.649,1.135C39.6,55.396,22.803,60.116,9.266,53.609C-2.178,47.217-2.468,34.606,5.743,31.548
		C4.143,33.033,4.921,37.01,6.609,40.193"/>
	<path d="M5.222,73.588c0-0.534-0.067-4.54-0.089-4.874c-0.045-0.534-0.267-0.757-1.113-0.757H2.729
		c-0.111,0-0.178-0.044-0.178-0.134v-0.601c0-0.089,0.067-0.134,0.156-0.134c0.267,0,1.402,0.067,3.472,0.067
		c1.981,0,2.693-0.067,3.005-0.067c0.111,0,0.156,0.067,0.156,0.156V67.8c0,0.111-0.067,0.156-0.178,0.156H8.115
		c-0.445,0-0.779,0.178-0.779,0.623c0,0.223-0.067,5.141-0.067,5.408v1.714c0,0.223,0.067,5.363,0.067,5.608
		c0,0.69,0.334,0.801,1.046,0.801h0.913c0.111,0,0.178,0.045,0.178,0.156v0.578c0,0.089-0.067,0.134-0.2,0.134
		c-0.267,0-1.157-0.067-3.094-0.067c-2.114,0-3.071,0.067-3.316,0.067c-0.111,0-0.178-0.045-0.178-0.134v-0.601
		c0-0.089,0.067-0.134,0.178-0.134h1.246c0.445,0,0.913-0.066,1.001-0.645c0.045-0.334,0.111-5.141,0.111-6.321L5.222,73.588
		L5.222,73.588z"/>
	<path d="M25.296,69.203c1.513,1.58,2.181,3.606,2.137,5.609c0.044,2.381-0.957,4.54-2.292,5.853
		c-1.313,1.313-2.47,1.936-3.872,2.404v0.089c2.292,0.846,4.162,1.291,5.698,1.625c5.631,1.269,6.499,1.024,6.921,1.024
		c0.623,0,1.113-0.289,1.38-0.49c0.067-0.067,0.133-0.111,0.2-0.022l0.156,0.223c0.044,0.066,0.022,0.156-0.067,0.223
		c-0.289,0.289-1.736,1.803-2.982,1.803c-0.668,0-2.048-0.045-5.942-1.046c-2.226-0.556-5.453-1.736-8.546-3.183
		c-0.445-0.156-2.448-0.489-4.496-2.67c-1.202-1.224-2.159-3.205-2.159-5.876c0-2.137,0.935-4.318,2.56-5.809
		c1.714-1.558,4.139-2.181,5.319-2.137C21.913,66.777,23.916,67.757,25.296,69.203z M25.207,75.502c0-2.671-0.734-4.874-1.914-5.987
		c-1.357-1.291-2.493-1.892-4.117-1.892c-1.024,0-2.315,0.2-3.561,1.447c-1.469,1.469-1.936,3.672-1.936,5.52
		c0,2.982,1.291,5.141,2.381,6.187c1.691,1.603,2.827,1.758,3.45,1.758C24.005,82.535,25.207,77.393,25.207,75.502z"/>
	<path d="M33.953,82.779c-1.513-0.601-2.292-1.58-2.648-2.982c-0.267-1.002-0.356-2.493-0.356-5.408v-5.297
		c0-0.779-0.156-1.135-0.846-1.135h-1.046c-0.134,0-0.156-0.044-0.156-0.2v-0.49c0-0.134,0.022-0.178,0.2-0.178
		c0.223,0,1.313,0.067,3.049,0.067s2.804-0.067,3.049-0.067c0.178,0,0.2,0.044,0.2,0.134v0.579c0,0.111-0.022,0.156-0.178,0.156
		h-1.113c-0.645,0-1.024,0.423-1.068,0.913c-0.022,0.2-0.044,1.758-0.044,2.893v1.469c0,1.18,0.089,4.006,0.111,4.718
		c0.022,1.024,0.2,2.07,0.712,2.827c0.824,1.202,2.248,1.603,3.539,1.603c1.268,0,2.559-0.423,3.338-1.224
		c0.868-0.935,1.157-2.27,1.157-3.917v-4.763c0-1.691-0.045-2.982-0.111-3.539c-0.067-0.579-0.423-0.979-1.002-0.979h-0.979
		c-0.133,0-0.156-0.067-0.156-0.178v-0.534c0-0.111,0.022-0.156,0.156-0.156c0.223,0,1.246,0.067,2.737,0.067
		c1.536,0,2.248-0.067,2.448-0.067s0.223,0.089,0.223,0.156v0.49c0,0.134-0.022,0.223-0.134,0.223h-0.912
		c-0.823,0-0.89,0.623-0.957,0.89c-0.045,0.222-0.045,3.383-0.045,3.694s-0.044,4.206-0.111,5.074
		c-0.134,1.825-0.623,3.227-1.869,4.296c-0.89,0.823-2.248,1.335-4.184,1.335C35.8,83.247,34.687,83.091,33.953,82.779z"/>
	<path d="M48.44,73.588c0-0.534-0.067-4.54-0.089-4.874c-0.044-0.534-0.267-0.757-1.113-0.757h-1.291
		c-0.111,0-0.178-0.044-0.178-0.134v-0.601c0-0.089,0.067-0.134,0.156-0.134c0.267,0,1.402,0.067,3.472,0.067
		c1.981,0,2.693-0.067,3.005-0.067c0.111,0,0.156,0.067,0.156,0.156V67.8c0,0.111-0.067,0.156-0.178,0.156h-1.046
		c-0.445,0-0.779,0.178-0.779,0.623c0,0.223-0.067,5.141-0.067,5.408v1.714c0,0.223,0.067,5.363,0.067,5.608
		c0,0.69,0.334,0.801,1.046,0.801h0.913c0.111,0,0.178,0.045,0.178,0.156v0.578c0,0.089-0.067,0.134-0.2,0.134
		c-0.267,0-1.157-0.067-3.094-0.067c-2.114,0-3.071,0.067-3.316,0.067c-0.111,0-0.178-0.045-0.178-0.134v-0.601
		c0-0.089,0.067-0.134,0.178-0.134h1.246c0.445,0,0.913-0.066,1.001-0.645c0.045-0.334,0.111-5.141,0.111-6.321
		C48.44,75.143,48.44,73.588,48.44,73.588z"/>
	<path d="M56.875,73.231c0-0.823-0.045-3.538-0.067-3.939c-0.067-1.291-0.423-1.335-1.447-1.335h-0.69
		c-0.134,0-0.178-0.044-0.178-0.156v-0.556c0-0.111,0.044-0.156,0.178-0.156c0.356,0,1.358,0.067,2.96,0.067
		c0.712,0,2.047-0.067,2.827-0.067c1.736,0,3.16,0.156,3.939,0.601c1.269,0.69,1.714,1.714,1.714,3.027
		c0,2.203-0.979,2.76-2.715,3.672l0.067,0.045c2.159,0.712,3.605,2.047,3.605,4.407c0,1.135-0.69,2.693-1.713,3.338
		c-0.935,0.579-2.203,0.802-4.251,0.802c-1.535,0-2.404-0.067-3.338-0.067c-1.113,0-2.426,0.067-2.849,0.067
		c-0.267,0-0.311-0.045-0.311-0.134v-0.578c0-0.111,0.044-0.156,0.2-0.156h1.068c0.69,0,0.801-0.267,0.89-0.979
		c0.067-0.512,0.111-3.449,0.111-5.274C56.875,75.86,56.875,73.231,56.875,73.231z M58.833,74.1c0.423,0.044,0.801,0.044,1.18,0.044
		c1.269,0,2.27-0.2,2.804-0.579c0.912-0.69,1.246-1.691,1.246-2.671c0-0.846-0.267-1.736-1.09-2.337
		C62.172,68,61.059,67.8,59.924,67.8c-0.312,0-0.557-0.022-0.735,0.022c-0.178,0.044-0.311,0.2-0.311,0.401
		c-0.022,0.445-0.045,2.381-0.045,4.229C58.833,72.452,58.833,74.1,58.833,74.1z M58.833,76.236v3.071c0,2.047,0.49,2.96,2.337,2.96
		c1.87,0,3.583-0.89,3.583-3.539c0-1.802-0.913-2.982-2.226-3.494c-0.912-0.356-1.958-0.378-2.982-0.378h-0.712
		C58.833,74.856,58.833,76.236,58.833,76.236z"/>
	<path d="M71.607,73.588c0-0.534-0.067-4.54-0.089-4.874c-0.044-0.534-0.267-0.757-1.113-0.757h-1.291
		c-0.111,0-0.178-0.044-0.178-0.134v-0.601c0-0.089,0.067-0.134,0.156-0.134c0.267,0,1.402,0.067,3.472,0.067
		c1.981,0,2.693-0.067,3.004-0.067c0.111,0,0.156,0.067,0.156,0.156V67.8c0,0.111-0.067,0.156-0.178,0.156H74.5
		c-0.445,0-0.779,0.178-0.779,0.623c0,0.223-0.067,5.141-0.067,5.408v1.714c0,0.223,0.067,5.363,0.067,5.608
		c0,0.69,0.333,0.801,1.046,0.801h0.913c0.111,0,0.178,0.045,0.178,0.156v0.578c0,0.089-0.067,0.134-0.201,0.134
		c-0.267,0-1.157-0.067-3.093-0.067c-2.115,0-3.071,0.067-3.316,0.067c-0.111,0-0.178-0.045-0.178-0.134v-0.601
		c0-0.089,0.067-0.134,0.178-0.134h1.246c0.445,0,0.913-0.066,1.002-0.645c0.044-0.334,0.111-5.141,0.111-6.321V73.588z"/>
	<path d="M80.197,81.199c-1.603-1.513-2.381-4.095-2.381-6.232c0-2.07,0.667-4.206,2.27-5.898c1.135-1.202,3.138-2.248,5.564-2.248
		c2.026,0,3.695,0.757,4.496,1.224c0.289,0.178,0.401,0.156,0.445,0l0.178-0.646c0.044-0.134,0.089-0.134,0.289-0.134
		c0.2,0,0.245,0.045,0.245,0.356c0,0.423,0.445,3.694,0.556,4.318c0.022,0.111,0,0.2-0.089,0.222l-0.334,0.089
		c-0.111,0.022-0.156,0-0.223-0.178c-0.311-0.735-0.801-1.803-1.736-2.76s-2.115-1.714-3.873-1.714
		c-3.984,0-5.586,3.539-5.564,6.788c0,1.291,0.401,3.806,2.137,5.72c1.513,1.691,2.782,1.87,4.273,1.87
		c2.515,0,4.473-1.38,5.497-2.826c0.066-0.112,0.111-0.134,0.178-0.067l0.289,0.223c0.067,0.044,0.111,0.089,0.044,0.2
		c-1.335,1.936-3.494,3.739-6.632,3.739C83.202,83.247,81.533,82.423,80.197,81.199z"/>
	<path d="M98.646,74.389c0.178,0,2.56-0.089,2.827-0.134c0.645-0.111,0.824-0.289,1.024-0.979c0.067-0.223,0.156-0.668,0.178-1.09
		c0-0.111,0.067-0.156,0.156-0.156l0.556,0.022c0.111,0,0.156,0.089,0.133,0.178c-0.066,0.378-0.066,2.203-0.066,2.537
		c0,0.779,0.089,1.847,0.133,2.315c0,0.111-0.044,0.156-0.133,0.178l-0.49,0.067c-0.111,0.022-0.156-0.044-0.178-0.2
		c-0.044-0.289-0.178-0.801-0.245-1.046c-0.133-0.467-0.378-0.801-0.957-0.868c-1.046-0.111-2.582-0.111-2.938-0.111v1.38
		c0,1.202,0.044,3.361,0.044,3.806c0.022,1.157,0.579,1.602,1.269,1.736c0.445,0.089,1.09,0.156,1.647,0.156
		c0.378,0,1.491-0.022,1.959-0.067c0.378-0.044,1.357-0.289,1.936-0.779c0.267-0.223,1.514-1.825,1.825-2.337
		c0.067-0.112,0.133-0.201,0.267-0.134l0.356,0.201c0.111,0.066,0.111,0.133,0.044,0.311l-1.18,3.271
		c-0.067,0.2-0.223,0.334-0.49,0.334c-0.111,0-0.601-0.022-1.936-0.045c-1.335,0-3.494-0.022-6.966-0.022
		c-0.823,0-1.447,0.022-1.892,0.022c-0.467,0.022-0.757,0.045-0.957,0.045c-0.134,0-0.201-0.045-0.201-0.156v-0.601
		c0-0.089,0.067-0.112,0.223-0.112h0.89c1.024,0,1.113-0.156,1.113-0.979v-5.274v-2.181c0-1.847-0.044-4.629-0.067-4.852
		c-0.089-0.712-0.311-0.868-1.135-0.868h-0.802c-0.111,0-0.178-0.022-0.178-0.156V67.2c0-0.067,0.045-0.111,0.156-0.111
		c0.49,0,1.268,0.067,2.737,0.067h0.979c2.203,0,4.406-0.022,6.61-0.022c0.356,0,0.779-0.044,0.89-0.044s0.156,0.044,0.178,0.111
		c0.089,0.311,1.068,3.361,1.135,3.583c0.022,0.089,0.022,0.156-0.067,0.2l-0.334,0.178c-0.067,0.044-0.156-0.022-0.178-0.067
		c-0.045-0.089-1.692-2.203-2.226-2.537c-0.467-0.312-1.09-0.579-1.691-0.601l-3.962-0.089v6.521H98.646z"/>
	<path d="M111.154,70.049c0-1.313-0.668-2.048-1.469-2.07l-0.912-0.022c-0.111,0-0.134-0.089-0.134-0.156v-0.579
		c0-0.089,0.022-0.134,0.134-0.134c0.111,0,0.289,0.022,0.623,0.022c0.334,0.022,0.824,0.044,1.58,0.044
		c0.757,0,1.224-0.044,1.491-0.044c0.289,0,0.468,0.089,0.645,0.289c0.111,0.134,4.429,5.742,4.674,6.054
		c0.245,0.312,4.006,4.919,4.54,5.631h0.089v-2.649c0-1.981-0.022-3.071-0.067-4.184c-0.022-0.868-0.134-3.049-0.267-3.427
		c-0.178-0.556-0.601-0.868-1.224-0.868h-0.712c-0.089,0-0.134-0.044-0.134-0.156v-0.579c0-0.089,0.045-0.134,0.134-0.134
		c0.311,0,1.024,0.067,2.448,0.067c1.336,0,1.87-0.067,2.159-0.067c0.156,0,0.178,0.067,0.178,0.156v0.556
		c0,0.089-0.045,0.156-0.134,0.156h-0.601c-0.601,0-0.823,0.378-0.868,1.224c-0.089,1.491-0.089,3.694-0.089,5.141v8.324
		c0,0.311-0.022,0.534-0.111,0.534c-0.267,0-0.468-0.267-0.535-0.356c-0.022-0.045-1.335-1.692-2.715-3.428
		c-1.558-1.936-3.183-3.984-3.316-4.117c-0.245-0.223-4.34-5.364-4.473-5.542h-0.133v4.941c0,2.07,0.178,5.697,0.222,6.142
		c0.089,0.868,0.223,1.291,0.823,1.291h0.668c0.156,0,0.178,0.067,0.178,0.201v0.49c0,0.133-0.022,0.178-0.178,0.178
		c-0.223,0-1.558-0.067-2.159-0.067c-0.468,0-2.003,0.067-2.226,0.067c-0.089,0-0.111-0.045-0.111-0.156v-0.579
		c0-0.067,0.022-0.134,0.134-0.134h0.757c0.645,0,0.89-0.267,1.002-1.358c0.044-0.423,0.089-2.96,0.089-6.921V70.049z"/>
	<g>
		<g>
			<path d="M9.726,5.075C9.752,5.101,9.76,5.127,9.743,5.162C9.225,5.905,8.395,6.614,7.167,6.614c-1.107,0-1.729-0.329-2.265-0.813
				c-0.64-0.57-0.934-1.573-0.934-2.334c0-0.847,0.277-1.66,0.882-2.317c0.467-0.501,1.21-0.916,2.248-0.916
				c0.795,0,1.435,0.242,1.747,0.415c0.121,0.069,0.156,0.069,0.173,0l0.069-0.225c0.017-0.052,0.035-0.052,0.138-0.052
				c0.104,0,0.121,0.017,0.121,0.138c0,0.156,0.173,1.539,0.207,1.798c0.009,0.052,0,0.078-0.035,0.087L9.355,2.447
				C9.311,2.464,9.285,2.43,9.259,2.36C9.156,2.049,8.948,1.617,8.585,1.236c-0.381-0.363-0.83-0.64-1.504-0.64
				c-1.383,0-1.954,1.245-1.954,2.49c0,0.536,0.156,1.556,0.795,2.248C6.493,5.94,6.994,6.009,7.409,6.009
				c0.951,0,1.703-0.476,2.066-1.003c0.043-0.06,0.078-0.086,0.104-0.06L9.726,5.075z"/>
			<path d="M26.789,0.925c0.649,0.527,1.176,1.383,1.176,2.559c0,0.64-0.173,1.314-0.64,1.902c-0.553,0.692-1.297,1.228-2.594,1.228
				c-0.519,0-1.262-0.156-1.954-0.571c-0.614-0.372-1.262-1.314-1.262-2.559c0-0.519,0.147-1.34,0.795-2.144
				c0.761-0.934,1.695-1.107,2.438-1.107C25.389,0.234,26.08,0.355,26.789,0.925z M23.469,1.098
				c-0.527,0.51-0.778,1.401-0.778,2.092c0,2.248,1.383,3.043,2.11,3.043c1.746,0,2.023-1.937,2.023-2.663
				c0-1.885-1.279-2.957-2.109-2.957C24.559,0.614,24.057,0.528,23.469,1.098z"/>
			<path d="M41.12,2.576c0,1.47,0.069,2.68,0.087,2.948c0.017,0.432,0.121,0.64,0.432,0.64h0.225c0.069,0,0.069,0.035,0.069,0.078
				v0.199c0,0.052,0,0.069-0.069,0.069c-0.087,0-0.605-0.026-0.934-0.026c-0.225,0-0.813,0.026-0.899,0.026
				c-0.035,0-0.052-0.017-0.052-0.078V6.216c0-0.017,0.017-0.052,0.052-0.052h0.294c0.225,0,0.346-0.19,0.389-0.717
				c0.008-0.156,0.06-1.366,0.06-2.749V1.6c0-0.519-0.294-0.917-0.674-0.917h-0.276c-0.035-0.009-0.052-0.026-0.052-0.061V0.389
				c0-0.035,0.017-0.052,0.052-0.052c0.043,0,0.112,0.009,0.268,0.017c0.155,0.009,0.389,0.009,0.769,0.009
				c0.147,0,0.276-0.009,0.38-0.017c0.112,0,0.19-0.009,0.242-0.009c0.103,0,0.155,0.026,0.207,0.078
				c0.087,0.087,1.781,2.213,1.954,2.455c0.121,0.138,1.47,1.816,1.608,1.989h0.035V3.96c0-0.761,0-1.193-0.017-1.625
				c-0.017-0.329-0.052-1.176-0.095-1.323c-0.061-0.207-0.251-0.329-0.458-0.329H44.44c-0.052,0-0.052-0.035-0.052-0.078V0.406
				c0-0.052,0-0.069,0.069-0.069c0.104,0,0.381,0.026,0.969,0.026c0.519,0,0.726-0.026,0.83-0.026c0.069,0,0.087,0.035,0.087,0.061
				v0.199c0,0.052-0.017,0.087-0.052,0.087h-0.242c-0.173,0-0.259,0.138-0.285,0.458c-0.043,0.588-0.13,2.04-0.13,2.922v2.282
				c0,0.121,0,0.242-0.104,0.242c-0.121,0-0.225-0.069-0.294-0.138c-0.069-0.087-0.536-0.623-1.072-1.262
				c-0.605-0.744-1.28-1.556-1.384-1.695c-0.121-0.121-1.504-1.85-1.608-1.971H41.12V2.576z"/>
			<path d="M60.103,3.683c0,0.087,0.017,2.075,0.017,2.17c0,0.277,0.138,0.311,0.346,0.311h0.363c0.035,0,0.069,0.017,0.069,0.061
				v0.216c0,0.052-0.035,0.069-0.086,0.069c-0.104,0-0.45-0.026-1.263-0.026c-0.864,0-1.245,0.026-1.332,0.026
				c-0.052,0-0.069-0.017-0.069-0.061V6.216c0-0.035,0.017-0.052,0.069-0.052h0.346c0.173,0,0.363-0.017,0.398-0.251
				c0.017-0.121,0.035-1.989,0.035-2.455V2.853c0-0.207-0.017-1.764-0.026-1.876c-0.026-0.207-0.113-0.294-0.355-0.294h-0.45
				c-0.051,0-0.069-0.017-0.069-0.061V0.398c0-0.043,0.017-0.061,0.052-0.061c0.103,0,0.553,0.026,1.4,0.026
				c0.83,0,1.106-0.026,1.228-0.026c0.051,0,0.069,0.035,0.069,0.078v0.199c0,0.052-0.035,0.069-0.069,0.069h-0.329
				c-0.19,0-0.328,0.069-0.328,0.233c0,0.087-0.017,1.989-0.017,2.092L60.103,3.683L60.103,3.683z"/>
			<path d="M78.713,5.075c0.026,0.026,0.035,0.052,0.018,0.087c-0.519,0.744-1.349,1.453-2.577,1.453
				c-1.107,0-1.729-0.329-2.265-0.813c-0.64-0.57-0.934-1.573-0.934-2.334c0-0.847,0.277-1.66,0.882-2.317
				c0.467-0.501,1.21-0.916,2.248-0.916c0.795,0,1.435,0.242,1.746,0.415c0.122,0.069,0.156,0.069,0.173,0l0.069-0.225
				c0.018-0.052,0.035-0.052,0.138-0.052c0.104,0,0.121,0.017,0.121,0.138c0,0.156,0.173,1.539,0.208,1.798
				c0.009,0.052,0,0.078-0.035,0.087l-0.164,0.052c-0.043,0.017-0.069-0.017-0.095-0.087c-0.104-0.311-0.311-0.743-0.674-1.124
				c-0.38-0.363-0.83-0.64-1.504-0.64c-1.384,0-1.954,1.245-1.954,2.49c0,0.536,0.156,1.556,0.796,2.248
				c0.571,0.605,1.072,0.674,1.487,0.674c0.951,0,1.703-0.476,2.066-1.003c0.043-0.06,0.078-0.086,0.104-0.06L78.713,5.075z"/>
			<path d="M92.482,3.977c0.009,0.467,0.026,1.314,0.026,1.47c0,0.449,0.156,0.623,0.346,0.674C92.993,6.156,93.2,6.19,93.529,6.19
				c0.155,0,0.553-0.017,0.726-0.035c0.155-0.017,0.485-0.104,0.709-0.294c0.155-0.138,0.64-0.709,0.804-0.916
				c0.035-0.043,0.061-0.052,0.095-0.035l0.138,0.086c0.026,0.017,0.035,0.043,0.018,0.087L95.604,6.38
				c-0.026,0.078-0.087,0.13-0.19,0.13c-0.044,0-0.234-0.009-0.77-0.017c-0.544,0-1.435-0.009-2.879-0.009
				c-0.32,0-0.553,0.009-0.734,0.009c-0.173,0.009-0.294,0.017-0.372,0.017c-0.051,0-0.069-0.017-0.069-0.069V6.234
				c0-0.052,0.018-0.069,0.087-0.069h0.294c0.398,0,0.432-0.052,0.432-0.372V3.735V2.888c0-0.709-0.017-1.781-0.035-1.902
				c-0.035-0.233-0.121-0.303-0.38-0.303h-0.329c-0.035,0-0.051-0.017-0.051-0.061V0.398c0-0.043,0.008-0.061,0.051-0.061
				c0.191,0,0.501,0.035,1.21,0.026h0.242c0.381,0,2.369-0.017,2.749-0.017c0.138,0,0.303-0.009,0.346-0.009s0.06,0.017,0.069,0.052
				c0.035,0.112,0.363,1.288,0.398,1.375c0.017,0.052,0.008,0.078-0.026,0.095l-0.155,0.069c-0.026,0.009-0.052,0-0.078-0.043
				c-0.035-0.052-0.744-0.847-0.951-0.968c-0.182-0.104-0.415-0.216-0.657-0.225l-1.314-0.035l-0.018,2.499
				c0.259,0,0.882-0.017,0.986-0.043c0.19-0.035,0.294-0.104,0.398-0.311c0.051-0.112,0.138-0.329,0.138-0.484
				c0-0.052,0.035-0.069,0.069-0.069l0.225,0.017c0.035,0,0.061,0.017,0.052,0.069c-0.018,0.138-0.018,0.709-0.018,0.934
				c0,0.346,0.035,0.761,0.052,0.951c0,0.043-0.017,0.052-0.068,0.061l-0.191,0.035c-0.035,0.009-0.052-0.009-0.069-0.061
				c-0.035-0.138-0.095-0.329-0.138-0.432c-0.078-0.173-0.241-0.294-0.432-0.311c-0.311-0.035-0.726-0.052-1.003-0.052L92.482,3.977
				z"/>
			<path d="M109.943,0.726h-0.242c-0.277,0-0.899,0-1.262,0.121c-0.277,0.121-0.605,0.692-0.77,0.986
				c-0.025,0.043-0.051,0.078-0.095,0.061l-0.173-0.061c-0.035-0.017-0.043-0.043-0.035-0.087c0.086-0.329,0.38-1.47,0.414-1.591
				C107.799,0.035,107.85,0,107.885,0c0.052,0,0.087,0.035,0.138,0.087c0.173,0.173,0.346,0.216,0.588,0.225
				c0.467,0.017,0.83,0.052,1.677,0.052h0.467c0.95,0,1.314-0.035,1.712-0.052c0.164-0.009,0.493-0.13,0.622-0.225
				C113.159,0.035,113.194,0,113.245,0c0.052,0,0.069,0.035,0.087,0.138c0.017,0.156,0.19,1.228,0.259,1.643
				c0.008,0.052-0.008,0.069-0.035,0.078l-0.173,0.06c-0.035,0.009-0.052-0.017-0.078-0.069c-0.121-0.242-0.441-0.795-0.683-0.968
				c-0.242-0.138-1.021-0.156-1.331-0.156h-0.242v4.608c0,0.657,0.086,0.83,0.294,0.83h0.501c0.035,0,0.052,0.035,0.052,0.078v0.181
				c0,0.052-0.018,0.087-0.087,0.087c-0.086,0-0.363-0.026-1.297-0.026c-0.882,0-1.245,0.026-1.366,0.026
				c-0.052,0-0.069-0.017-0.069-0.078V6.234c0-0.052,0.025-0.069,0.06-0.069h0.493c0.173,0,0.277-0.104,0.285-0.233
				c0.026-0.225,0.026-2.87,0.026-3.043V0.726H109.943z"/>
		</g>
	</g>
	<path d="M108.524,86.952c0-0.204-0.045-0.364-0.386-0.364h-0.204c-0.046,0-0.069-0.022-0.069-0.068v-0.284
		c0-0.034,0.023-0.057,0.069-0.057c0.068,0,0.794,0.034,1.146,0.034c0.273,0,0.943-0.034,1.01-0.034c0.057,0,0.08,0.023,0.08,0.069
		v0.272c0,0.034-0.023,0.068-0.069,0.068h-0.158c-0.364,0-0.488,0.114-0.499,0.205c-0.023,0.147-0.012,0.534-0.012,0.953v0.465
		c0,0.375,0.023,1.282,0.023,1.442c0.012,0.318,0.08,0.67,0.261,0.908c0.261,0.352,0.749,0.488,1.055,0.488
		c0.375,0,0.795-0.147,1.033-0.375c0.318-0.295,0.375-0.726,0.375-1.181v-1.566c0-0.534-0.023-0.908-0.046-1.033
		c-0.022-0.193-0.136-0.307-0.487-0.307h-0.125c-0.045,0-0.068-0.034-0.068-0.091v-0.249c0-0.034,0.023-0.069,0.068-0.069
		c0.057,0,0.692,0.034,0.987,0.034c0.193,0,0.76-0.034,0.829-0.034c0.057,0,0.079,0.034,0.079,0.08v0.25
		c0,0.045-0.022,0.079-0.068,0.079h-0.102c-0.398,0-0.431,0.182-0.465,0.307c-0.023,0.091-0.023,0.954-0.023,1.09
		c0,0.102-0.023,1.362-0.034,1.646c-0.046,0.59-0.204,1.056-0.625,1.396c-0.306,0.273-0.771,0.431-1.51,0.431
		c-0.431,0-0.794-0.045-1.055-0.147c-0.511-0.204-0.772-0.511-0.897-0.965c-0.08-0.33-0.114-0.818-0.114-1.794L108.524,86.952
		L108.524,86.952z"/>
	<path d="M114.256,86.26c0-0.057,0.012-0.08,0.069-0.08c0.102,0,0.874,0.034,1.066,0.034c0.25,0,0.693-0.034,0.965-0.034
		c0.635,0,1.112,0.057,1.373,0.193c0.431,0.227,0.59,0.567,0.59,0.987c0,0.715-0.341,0.897-1.055,1.158v0.022
		c0.874,0.261,1.373,0.693,1.373,1.453c0,0.397-0.215,0.919-0.59,1.09c-0.307,0.159-0.84,0.273-1.612,0.273
		c-0.386,0-0.76-0.034-1.146-0.034c-0.307,0-0.715,0.034-0.908,0.034c-0.08,0-0.091-0.034-0.091-0.114v-0.239
		c0-0.045,0.011-0.057,0.079-0.057h0.307c0.17,0,0.272-0.136,0.306-0.284c0.035-0.159,0.035-1.033,0.035-1.635v-0.84
		c0-0.284-0.023-1.079-0.035-1.203c-0.022-0.386-0.238-0.398-0.453-0.398h-0.216c-0.057,0-0.057-0.011-0.057-0.079
		C114.256,86.507,114.256,86.26,114.256,86.26z M115.856,88.405c0.522,0.034,0.931-0.011,1.158-0.159
		c0.307-0.216,0.42-0.511,0.42-0.749s-0.057-0.522-0.341-0.738c-0.227-0.17-0.659-0.25-0.874-0.25c-0.103,0-0.181,0-0.25,0.011
		c-0.068,0.011-0.091,0.068-0.102,0.148c-0.012,0.147-0.012,0.772-0.012,1.248v0.489H115.856z M115.856,90.153
		c0,0.545,0.159,0.863,0.726,0.863c0.511,0,1.09-0.295,1.09-1.056c0-0.579-0.307-0.931-0.737-1.079
		c-0.387-0.136-0.715-0.125-1.079-0.125C115.856,88.756,115.856,90.153,115.856,90.153z"/>
	<path d="M121.077,89.359c-0.046,0.136-0.409,1.078-0.454,1.214c-0.068,0.227-0.034,0.374,0.204,0.374h0.284
		c0.068,0,0.08,0.034,0.08,0.08v0.25c0,0.045-0.012,0.079-0.069,0.079c-0.091,0-0.692-0.034-0.874-0.034
		c-0.215,0-0.783,0.034-0.885,0.034c-0.046,0-0.046-0.057-0.046-0.102v-0.238c0-0.046,0-0.069,0.046-0.069h0.158
		c0.193,0,0.375-0.113,0.465-0.238c0.08-0.091,0.659-1.453,0.931-2.02c0.08-0.159,0.749-1.702,0.817-1.895
		c0.023-0.068,0.091-0.193,0.012-0.227c-0.023-0.022-0.057-0.079-0.046-0.113c-0.011-0.023,0.011-0.057,0.114-0.08
		c0.215-0.034,0.533-0.238,0.636-0.329c0.023-0.045,0.068-0.079,0.137-0.079c0.068,0,0.091,0.045,0.113,0.125
		c0.159,0.454,0.738,2.077,0.886,2.531c0.17,0.568,0.659,1.907,0.737,2.021c0.147,0.204,0.341,0.306,0.534,0.306h0.215
		c0.046,0,0.057,0.034,0.057,0.069v0.238c0,0.034-0.011,0.102-0.08,0.102c-0.136,0-0.737-0.034-0.998-0.034
		c-0.215,0-0.886,0.034-1.033,0.034c-0.079,0-0.091-0.057-0.091-0.102v-0.238c0-0.034,0.012-0.069,0.057-0.069h0.181
		c0.136,0,0.182-0.102,0.182-0.192c-0.046-0.227-0.352-1.135-0.443-1.396h-1.827V89.359z M122.791,88.995
		c-0.046-0.158-0.579-1.861-0.602-1.952c-0.023-0.068-0.034-0.114-0.068-0.114c-0.035,0-0.057,0.034-0.092,0.125
		c-0.034,0.091-0.726,1.827-0.783,1.941H122.791z"/>
</g>
</svg>
